<svg width="149" height="30" viewBox="0 0 149 30" fill="none" xmlns="http://www.w3.org/2000/svg">
<path fill-rule="evenodd" clip-rule="evenodd" d="M2.39604 3.01038H9.85306L13.9207 10.0953L17.267 4.06633V3.01038H17.8531L19.1836 0.613281V3.01038H26.1342V25.081H17.267V19.5596L13.4188 26.5199L9.66922 19.8753V25.081H1.19953V4.8661L0.152344 3.01038H1.19953V0.900336L2.39604 3.01038ZM2.61708 4.48579H9.06052L13.9411 12.9867L17.7797 6.0707V15.6954L13.4064 23.6056L2.61708 4.48579ZM2.60337 23.6056H8.26537V16.243L2.60337 6.25801V23.6056ZM18.6708 23.6056H24.7304V4.48579H18.6708V23.6056ZM44.8586 23.6056L44.0909 21.5164H38.141L39.4022 17.727H42.6925L37.8257 4.48579H43.7344L50.9867 23.6056H44.8586ZM37.8374 3.01038H44.6861L53.0576 25.081H43.8959L43.1281 22.9918H38.1926L37.5399 25.081H28.6453L36.1458 4.01L35.7784 3.01038H36.5017L37.1715 1.1287L37.8374 3.01038ZM30.6693 23.6056H36.5233L39.8546 12.9435L37.1676 5.35029L30.6693 23.6056ZM40.4579 15.7418L40.2986 16.2516H40.6453L40.4579 15.7418ZM55.5218 25.081V3.01038H71.4481L75.9187 7.69123V14.6496L73.4511 17.243L77.488 25.081H67.7755L65.1707 19.3465H64.3891V25.081H55.5218ZM62.9852 4.48579H56.9256V23.6056H62.9852V4.48579ZM64.3891 9.7794V12.6928H67.0926V9.7794H64.3891ZM68.4964 8.30399V14.1682H63.9449V17.8711H66.0561L68.6609 23.6056H75.1318L71.7181 16.9778L74.5148 14.0385V8.30399L70.8681 4.48579H63.9449V8.30399H68.4964ZM65.8368 17.3668L66.0561 17.8711H70.8681L71.7181 16.9778L71.5262 16.5744L65.8368 17.3668ZM80.6183 8.64979V4.48579H96.4115V8.64979H80.6183ZM83.9579 10.1252H79.2144V3.01038H97.8154V10.1252H93.0719V25.081H83.9579V10.1252ZM85.3617 23.6056H91.6681V9.64396H85.3617V23.6056ZM113.011 3.01038H121.933V25.081H113.052V17.3149H110.403V25.081H101.536V3.01038H110.403V10.5315H113.011V3.01038ZM114.415 12.0069H109.959V15.8395H114.456V23.6056H120.529V4.48579H114.415V12.0069ZM109 4.48579H102.94V23.6056H109V4.48579ZM140.644 23.6056L139.876 21.5164H133.926L135.187 17.727H138.478L133.611 4.48579H139.519L146.772 23.6056H140.644ZM133.622 3.01038H140.471L148.843 25.081H139.681L138.913 22.9918H133.978L133.325 25.081H124.43L131.931 4.00999L131.563 3.01038H132.287L132.957 1.1287L133.622 3.01038ZM126.454 23.6056H132.308L135.64 12.9435L132.953 5.35029L126.454 23.6056ZM136.243 15.7418L136.084 16.2516H136.43L136.243 15.7418Z" fill="#EEFF03"/>
</svg>
